<svg id="Layer_1" data-name="Layer 1" xmlns="http://www.w3.org/2000/svg" viewBox="0 0 670 164"><title>wildstone logo</title><path d="M48.75,153.65h0A41.71,41.71,0,0,1,7,111.94H7V91.08H48.75Zm10.43,0h41.71V49.37H59.17Zm52.14,0A41.71,41.71,0,0,0,153,111.94h0V7.65H111.32v146h0M642.16,73.49c-8.08,0-14.55,4.65-15.66,13.54h30.62c-.71-8.49-6-13.54-15-13.54m.4-6.77c15.26,0,22.43,10.71,22.43,24.56v1.31H626.19c.2,10.31,7,16.78,16.78,16.78,8.69,0,13.14-5.15,16-8.89l5.25,4.75c-3.44,4.85-9.4,11.22-21.12,11.22-14.75,0-24.25-10-24.25-24.76,0-15,9.5-25,23.75-25m-55.88,0c10.41,0,17.89,5.76,17.89,19.81v28.4h-7.28V87.54c0-9.5-5.05-13.54-12.53-13.54-8,0-15,4.85-15,19.4v21.53h-7.28V68.24h7.28v9h.2c3-6.77,8.69-10.51,16.67-10.51M522.51,73.9c-10.11,0-17.58,7-17.58,17.69s7.48,17.69,17.58,17.69,17.58-7,17.58-17.69S532.62,73.9,522.51,73.9m0-7.18c14.65,0,25.26,10.41,25.26,24.86s-10.61,24.86-25.26,24.86S497.25,106,497.25,91.58,508,66.72,522.51,66.72M476.23,74.5v27.59c0,4.14,2,6.16,5.86,6.16h2.53V115h-3.84c-7.38,0-11.82-3.94-11.82-11.52v-29h-9V68.24h9V49.54h7.28v18.7h10.31V74.5Zm-43,41.94a36.87,36.87,0,0,1-19.3-5.46l3.54-6.47a29.66,29.66,0,0,0,16.07,5.05c6.37,0,9.3-2.53,9.3-6.16,0-3-2.12-5.05-6.37-7l-8.69-4.14c-6.77-3.13-10.11-7.38-10.11-13,0-8.19,6.37-12.53,16.07-12.53a38.32,38.32,0,0,1,15.76,3.64l-3.13,6.47a30.13,30.13,0,0,0-12.83-3.23c-5.26,0-8.08,1.82-8.08,5.36,0,3.13,2.12,5,6.67,7.07L440.55,90c6,2.83,10,6.47,10,13.14,0,8.89-6.87,13.34-17.38,13.34m-56.79-7.18c10.21,0,16.88-7.38,16.88-17.69S386.59,73.9,376.38,73.9s-16.88,7.38-16.88,17.69,6.67,17.69,16.88,17.69M375,116.44c-12.83,0-23.14-9.4-23.14-24.86S362.13,66.72,375,66.72c8.49,0,14.45,3.94,17.69,9.8h.2V44.19h7.28v70.74h-7.28v-8.29h-.2c-3.23,5.86-9.2,9.8-17.69,9.8m-38.2-1.52h-7.28V44.19h7.28ZM303.83,68.24h7.28v46.69h-7.28Zm-34.56,46.69h-7.78l-18.29-57.7h-.3l-18.29,57.7h-7.78L195.39,44.19h8.69l16.47,58.21h.2l18.19-58.21H247l18.29,58.21h.2L281.9,44.19h8.79Zm38.64-60a5.48,5.48,0,1,0-5.48-5.48,5.48,5.48,0,0,0,5.48,5.48h0"/></svg>